<svg xmlns="http://www.w3.org/2000/svg" viewBox="0 0 760 260">
  <rect width="760" height="260" fill="#f8fafc"/>

  <!-- PARENT DOCUMENT (left) -->
  <text x="120" y="30" text-anchor="middle" font-family="Lato, sans-serif" font-size="10" font-weight="700" fill="#888" letter-spacing="1.5">PARENT DOC</text>
  <rect x="36" y="44" width="168" height="186" rx="8" fill="#e8f0fb" stroke="#1772d0" stroke-width="1.5"/>

  <!-- chunk c1 -->
  <rect x="52" y="58" width="136" height="34" rx="4" fill="#ffffff" stroke="#1772d0" stroke-width="1"/>
  <text x="58" y="74" font-family="Lato, sans-serif" font-size="8" font-weight="700" fill="#888">c1</text>
  <line x1="72" y1="70" x2="178" y2="70" stroke="#1772d0" stroke-width="1" opacity="0.4"/>
  <line x1="72" y1="80" x2="168" y2="80" stroke="#1772d0" stroke-width="1" opacity="0.4"/>

  <!-- chunk c2 — matched (blue) -->
  <rect x="52" y="98" width="136" height="34" rx="4" fill="#1772d0" stroke="#1772d0" stroke-width="1"/>
  <text x="58" y="114" font-family="Lato, sans-serif" font-size="8" font-weight="700" fill="#ffffff">c2</text>
  <line x1="72" y1="110" x2="178" y2="110" stroke="#ffffff" stroke-width="1" opacity="0.6"/>
  <line x1="72" y1="120" x2="165" y2="120" stroke="#ffffff" stroke-width="1" opacity="0.6"/>

  <!-- chunk c3 -->
  <rect x="52" y="138" width="136" height="34" rx="4" fill="#ffffff" stroke="#1772d0" stroke-width="1"/>
  <text x="58" y="154" font-family="Lato, sans-serif" font-size="8" font-weight="700" fill="#888">c3</text>
  <line x1="72" y1="150" x2="178" y2="150" stroke="#1772d0" stroke-width="1" opacity="0.4"/>
  <line x1="72" y1="160" x2="162" y2="160" stroke="#1772d0" stroke-width="1" opacity="0.4"/>

  <!-- chunk c4 -->
  <rect x="52" y="178" width="136" height="34" rx="4" fill="#ffffff" stroke="#1772d0" stroke-width="1"/>
  <text x="58" y="194" font-family="Lato, sans-serif" font-size="8" font-weight="700" fill="#888">c4</text>
  <line x1="72" y1="190" x2="178" y2="190" stroke="#1772d0" stroke-width="1" opacity="0.4"/>
  <line x1="72" y1="200" x2="155" y2="200" stroke="#1772d0" stroke-width="1" opacity="0.4"/>

  <text x="120" y="246" text-anchor="middle" font-family="Lato, sans-serif" font-size="10" fill="#1772d0">indexed: small chunks</text>

  <!-- STEP 1: retrieve arrow -->
  <line x1="210" y1="115" x2="268" y2="115" stroke="#1772d0" stroke-width="1.5" stroke-dasharray="3,2"/>
  <polygon points="265,111 273,115 265,119" fill="#1772d0"/>
  <text x="240" y="107" text-anchor="middle" font-family="Lato, sans-serif" font-size="9" font-style="italic" fill="#1772d0">retrieve</text>
  <text x="240" y="132" text-anchor="middle" font-family="Lato, sans-serif" font-size="8" fill="#888">precision</text>

  <!-- MATCHED CHUNK (center) -->
  <text x="338" y="30" text-anchor="middle" font-family="Lato, sans-serif" font-size="10" font-weight="700" fill="#888" letter-spacing="1.5">MATCHED CHUNK</text>
  <rect x="278" y="88" width="120" height="54" rx="6" fill="#1772d0"/>
  <text x="284" y="106" font-family="Lato, sans-serif" font-size="8" font-weight="700" fill="#ffffff">c2</text>
  <line x1="298" y1="102" x2="388" y2="102" stroke="#ffffff" stroke-width="1" opacity="0.6"/>
  <line x1="298" y1="112" x2="380" y2="112" stroke="#ffffff" stroke-width="1" opacity="0.6"/>
  <line x1="298" y1="122" x2="376" y2="122" stroke="#ffffff" stroke-width="1" opacity="0.6"/>
  <line x1="298" y1="132" x2="388" y2="132" stroke="#ffffff" stroke-width="1" opacity="0.6"/>
  <text x="338" y="162" text-anchor="middle" font-family="Lato, sans-serif" font-size="10" fill="#1772d0">tight semantics</text>

  <!-- STEP 2: expand arrow -->
  <line x1="404" y1="115" x2="462" y2="115" stroke="#f09228" stroke-width="1.5" stroke-dasharray="3,2"/>
  <polygon points="459,111 467,115 459,119" fill="#f09228"/>
  <text x="433" y="107" text-anchor="middle" font-family="Lato, sans-serif" font-size="9" font-style="italic" fill="#f09228">expand</text>
  <text x="433" y="132" text-anchor="middle" font-family="Lato, sans-serif" font-size="8" fill="#888">context</text>

  <!-- SENT TO LLM (right) -->
  <text x="612" y="30" text-anchor="middle" font-family="Lato, sans-serif" font-size="10" font-weight="700" fill="#888" letter-spacing="1.5">SENT TO LLM</text>
  <rect x="476" y="44" width="252" height="186" rx="8" fill="#e8f0fb" stroke="#1772d0" stroke-width="1.5"/>

  <!-- surrounding context lines (above matched) -->
  <line x1="494" y1="62" x2="710" y2="62" stroke="#1772d0" stroke-width="1" opacity="0.4"/>
  <line x1="494" y1="74" x2="702" y2="74" stroke="#1772d0" stroke-width="1" opacity="0.4"/>
  <line x1="494" y1="86" x2="710" y2="86" stroke="#1772d0" stroke-width="1" opacity="0.4"/>

  <!-- highlighted matched chunk in parent -->
  <rect x="492" y="96" width="220" height="44" rx="4" fill="#1772d0" opacity="0.9"/>
  <line x1="506" y1="108" x2="700" y2="108" stroke="#ffffff" stroke-width="1" opacity="0.6"/>
  <line x1="506" y1="118" x2="692" y2="118" stroke="#ffffff" stroke-width="1" opacity="0.6"/>
  <line x1="506" y1="130" x2="700" y2="130" stroke="#ffffff" stroke-width="1" opacity="0.6"/>

  <!-- surrounding context lines (below matched) -->
  <line x1="494" y1="152" x2="710" y2="152" stroke="#1772d0" stroke-width="1" opacity="0.4"/>
  <line x1="494" y1="164" x2="700" y2="164" stroke="#1772d0" stroke-width="1" opacity="0.4"/>
  <line x1="494" y1="176" x2="708" y2="176" stroke="#1772d0" stroke-width="1" opacity="0.4"/>
  <line x1="494" y1="188" x2="698" y2="188" stroke="#1772d0" stroke-width="1" opacity="0.4"/>
  <line x1="494" y1="200" x2="710" y2="200" stroke="#1772d0" stroke-width="1" opacity="0.4"/>
  <line x1="494" y1="212" x2="700" y2="212" stroke="#1772d0" stroke-width="1" opacity="0.4"/>

  <text x="612" y="246" text-anchor="middle" font-family="Lato, sans-serif" font-size="10" fill="#1772d0">full parent context</text>
</svg>
