<svg xmlns="http://www.w3.org/2000/svg" viewBox="0 0 180 180">
  <rect width="180" height="180" rx="18" fill="#f8fafc"/>
  <!-- Input query -->
  <rect x="18" y="76" width="40" height="28" rx="6" fill="#e8f0fb" stroke="#1772d0" stroke-width="1.5"/>
  <text x="38" y="87" font-family="monospace" font-size="7" fill="#1772d0" text-anchor="middle">query</text>
  <text x="38" y="98" font-family="monospace" font-size="9" fill="#f09228" text-anchor="middle">?</text>
  <!-- Router diamond -->
  <polygon points="90,62 118,90 90,118 62,90" fill="#1772d0" opacity="0.85"/>
  <text x="90" y="94" font-family="monospace" font-size="8" fill="#fff" text-anchor="middle">ROUTE</text>
  <!-- Arrow in -->
  <line x1="58" y1="90" x2="62" y2="90" stroke="#f09228" stroke-width="2"/>
  <polyline points="57,87 62,90 57,93" fill="#f09228" stroke="#f09228" stroke-width="1"/>
  <!-- Output LLM boxes -->
  <rect x="122" y="30" width="42" height="22" rx="5" fill="#1772d0" opacity="0.7"/>
  <text x="143" y="45" font-family="monospace" font-size="8" fill="#fff" text-anchor="middle">GPT-4o</text>
  <rect x="122" y="79" width="42" height="22" rx="5" fill="#1772d0" opacity="0.7"/>
  <text x="143" y="94" font-family="monospace" font-size="8" fill="#fff" text-anchor="middle">Claude</text>
  <rect x="122" y="128" width="42" height="22" rx="5" fill="#1772d0" opacity="0.7"/>
  <text x="143" y="143" font-family="monospace" font-size="8" fill="#fff" text-anchor="middle">OSS LLM</text>
  <!-- Routing arrows out -->
  <g stroke="#1772d0" stroke-width="1.2" opacity="0.6">
    <line x1="118" y1="78" x2="122" y2="54"/>
    <line x1="118" y1="90" x2="122" y2="90"/>
    <line x1="118" y1="102" x2="122" y2="136"/>
  </g>
  <!-- Active route highlight -->
  <line x1="118" y1="90" x2="122" y2="90" stroke="#f09228" stroke-width="2" opacity="0.9"/>
</svg>
