<svg xmlns="http://www.w3.org/2000/svg" viewBox="0 0 180 180">
  <rect width="180" height="180" rx="18" fill="#f8fafc"/>
  <!-- Feed icons: text, audio wave, chart -->
  <rect x="14" y="22" width="36" height="22" rx="5" fill="#e8f0fb" stroke="#1772d0" stroke-width="1.2"/>
  <text x="32" y="37" font-family="monospace" font-size="8" fill="#1772d0" text-anchor="middle">TEXT</text>
  <rect x="14" y="52" width="36" height="22" rx="5" fill="#e8f0fb" stroke="#1772d0" stroke-width="1.2"/>
  <g stroke="#f09228" stroke-width="1.2" opacity="0.9">
    <polyline points="18,63 22,57 26,69 30,57 34,69 38,63 42,63"/>
  </g>
  <rect x="14" y="82" width="36" height="22" rx="5" fill="#e8f0fb" stroke="#1772d0" stroke-width="1.2"/>
  <g fill="#1772d0" opacity="0.7">
    <rect x="18" y="93" width="4" height="8" rx="1"/>
    <rect x="24" y="88" width="4" height="13" rx="1"/>
    <rect x="30" y="91" width="4" height="10" rx="1"/>
    <rect x="36" y="86" width="4" height="15" rx="1"/>
  </g>
  <!-- Funnel into processor -->
  <g stroke="#1772d0" stroke-width="1" opacity="0.5">
    <line x1="50" y1="33" x2="70" y2="72"/>
    <line x1="50" y1="63" x2="70" y2="78"/>
    <line x1="50" y1="93" x2="70" y2="84"/>
  </g>
  <!-- Central processor -->
  <rect x="70" y="65" width="40" height="30" rx="8" fill="#1772d0" opacity="0.85"/>
  <text x="90" y="83" font-family="monospace" font-size="8" fill="#fff" text-anchor="middle">ANALYZE</text>
  <!-- Sentiment output bars -->
  <rect x="120" y="42" width="46" height="14" rx="4" fill="#f8fafc" stroke="#1772d0" stroke-width="1"/>
  <rect x="120" y="42" width="38" height="14" rx="4" fill="#1772d0" opacity="0.7"/>
  <text x="168" y="53" font-family="monospace" font-size="7" fill="#1772d0" text-anchor="end">+82%</text>
  <rect x="120" y="62" width="46" height="14" rx="4" fill="#f8fafc" stroke="#1772d0" stroke-width="1"/>
  <rect x="120" y="62" width="18" height="14" rx="4" fill="#f09228" opacity="0.7"/>
  <text x="168" y="73" font-family="monospace" font-size="7" fill="#f09228" text-anchor="end">-21%</text>
  <rect x="120" y="82" width="46" height="14" rx="4" fill="#f8fafc" stroke="#1772d0" stroke-width="1"/>
  <rect x="120" y="82" width="28" height="14" rx="4" fill="#1772d0" opacity="0.4"/>
  <text x="168" y="93" font-family="monospace" font-size="7" fill="#1772d0" text-anchor="end">~45%</text>
  <!-- Trend line at bottom -->
  <polyline points="20,148 40,138 60,142 80,128 100,132 120,118 140,122 160,110"
    stroke="#f09228" stroke-width="2" fill="none" opacity="0.85"/>
  <circle cx="160" cy="110" r="4" fill="#f09228"/>
</svg>
